<?xml version="1.0" encoding="utf-8"?>
<!-- Generator: Adobe Illustrator 22.0.1, SVG Export Plug-In . SVG Version: 6.00 Build 0)  -->
<svg version="1.1" id="Warstwa_1" xmlns="http://www.w3.org/2000/svg" xmlns:xlink="http://www.w3.org/1999/xlink" x="0px" y="0px"
	 viewBox="0 0 112 112" style="enable-background:new 0 0 112 112;" xml:space="preserve">
<style type="text/css">
	.st0{fill:#1062FE;}
</style>
<g>
	<path class="st0" d="M20,90.6l35.2,20.3c0.2,0.1,0.5,0.3,0.7,0.3c1.1,0.5,2.3,0.7,3.7,0.7c1.7,0,3.2-0.4,4.4-1.1l35.2-20.3
		c1.3-0.8,2-1.8,2-3c0-1.2-0.7-2.2-2-3L71.9,68.9c-0.6-0.3-1.2-0.5-1.9-0.5c-1.9,0-3.5,1.3-3.8,3.2l-5.9,33.1v-76
		c0-1.4-0.5-2.9-1.3-4.4c-0.8-1.4-1.9-2.6-3.1-3.3L20.7,0.7c-1.3-0.8-2.6-0.9-3.6-0.3c-1,0.6-1.5,1.7-1.5,3.2v79.3
		c0,1.4,0.5,2.9,1.3,4.4C17.7,88.7,18.8,89.9,20,90.6z"/>
</g>
</svg>
